<svg
    xmlns="http://www.w3.org/2000/svg"
    viewBox="0 0 48 24"
    id="vector">
    <path
        id="path"
        d="M 30.11 15.092 L 27.905 15.092 L 27.905 8.999 L 30.109 8.999 C 31.842 8.999 32.464 9.74 32.464 12.046 C 32.464 14.352 31.842 15.092 30.109 15.092 M 16.487 1.529 C 20.601 1.529 24.159 3.895 25.878 7.341 L 30.15 7.341 C 32.7 7.341 34.09 8.451 34.47 10.791 L 34.471 10.596 C 34.471 8.609 35.403 7.341 37.671 7.341 L 41.885 7.341 L 41.885 8.999 L 38.385 8.999 C 36.809 8.999 36.485 9.651 36.485 10.731 L 36.457 11.397 L 41.177 11.397 L 41.177 13.042 L 36.46 13.042 L 36.457 16.739 L 34.46 16.739 L 34.46 13.598 C 34.262 14.609 33.828 15.379 33.14 15.928 C 32.181 16.69 31.245 16.752 30.202 16.752 L 25.844 16.752 C 24.114 20.159 20.577 22.492 16.488 22.492 C 10.697 22.492 6 17.802 6 12.012 C 6 6.222 10.697 1.529 16.487 1.529 Z M 23.13 7.332 L 17.992 7.332 L 17.992 8.992 L 22.408 8.992 C 23.47 8.992 24.08 9.243 24.08 10.145 C 24.08 11.022 23.47 11.23 22.434 11.23 L 21.132 11.23 C 18.867 11.23 17.933 12.41 17.933 14.397 L 17.933 16.732 L 25.847 16.732 L 25.847 15.124 L 19.949 15.124 L 19.949 14.62 C 19.949 13.542 20.289 12.972 21.866 12.972 L 23.126 12.972 C 25.664 12.972 26.106 11.255 26.106 10.172 C 26.106 9.156 25.736 7.332 23.13 7.332 Z"
        fill="#fa7d19"
        fill-rule="evenodd"/>
    <path
        id="path_1"
        d="M 21.132 11.23 L 22.434 11.23 C 23.47 11.23 24.08 11.022 24.08 10.144 C 24.08 9.243 23.47 8.991 22.408 8.991 L 17.992 8.991 L 17.992 7.33 L 23.13 7.33 C 25.737 7.33 26.105 9.155 26.105 10.171 C 26.105 11.254 25.664 12.971 23.125 12.971 L 21.865 12.971 C 20.288 12.971 19.949 13.541 19.949 14.619 L 19.949 15.123 L 25.847 15.123 L 25.847 16.73 L 17.933 16.73 L 17.933 14.395 C 17.933 12.41 18.867 11.228 21.132 11.228"
        fill="#ffffff"
        fill-rule="evenodd"/>
</svg>
